<svg width="15" height="14" viewBox="0 0 15 14" fill="none" xmlns="http://www.w3.org/2000/svg">
<line x1="15" y1="2.91406" x2="-4.45091e-08" y2="2.91406" stroke="#1E385E"/>
<path d="M2.68242 4.35698C3.61274 4.35698 4.38242 3.61398 4.38242 2.67849C4.38242 1.743 3.61274 1 2.68242 1C1.7521 1 0.982422 1.743 0.982422 2.67849C0.982422 3.61398 1.7521 4.35698 2.68242 4.35698Z" fill="#F9F8F6" stroke="#1E385E"/>
<line x1="15" y1="11.5576" x2="-4.45091e-08" y2="11.5576" stroke="#1E385E"/>
<path d="M7.68242 13.0005C8.61274 13.0005 9.38242 12.2575 9.38242 11.322C9.38242 10.3866 8.61274 9.64355 7.68242 9.64355C6.7521 9.64355 5.98242 10.3866 5.98242 11.322C5.98242 12.2575 6.7521 13.0005 7.68242 13.0005Z" fill="#F9F8F6" stroke="#1E385E"/>
<line x1="15" y1="7.23535" x2="-4.45091e-08" y2="7.23535" stroke="#1E385E"/>
<path d="M12.1648 8.67827C13.0952 8.67827 13.8648 7.93527 13.8648 6.99978C13.8648 6.06429 13.0952 5.32129 12.1648 5.32129C11.2345 5.32129 10.4648 6.06429 10.4648 6.99978C10.4648 7.93527 11.2345 8.67827 12.1648 8.67827Z" fill="#F9F8F6" stroke="#1E385E"/>
</svg>
