<svg width="16" height="17" viewBox="0 0 16 17" fill="none" xmlns="http://www.w3.org/2000/svg">
<path d="M2.69629 5.53642C2.69629 6.63142 3.02099 7.70184 3.62934 8.6123C4.23769 9.52276 5.10237 10.2324 6.11402 10.6514C7.12566 11.0705 8.23885 11.1801 9.31282 10.9665C10.3868 10.7528 11.3733 10.2255 12.1476 9.45127C12.9218 8.67698 13.4491 7.69049 13.6628 6.61653C13.8764 5.54257 13.7667 4.42938 13.3477 3.41773C12.9287 2.40608 12.219 1.54141 11.3086 0.933056C10.3981 0.324706 9.32771 0 8.23271 0C6.76568 0.00429587 5.35997 0.588975 4.32262 1.62633C3.28526 2.66368 2.70058 4.06939 2.69629 5.53642ZM12.4664 5.53642C12.4664 6.37378 12.2181 7.19233 11.7529 7.88856C11.2877 8.58479 10.6265 9.12744 9.85289 9.44788C9.07928 9.76833 8.22802 9.85217 7.40675 9.68881C6.58549 9.52545 5.83111 9.12223 5.23901 8.53013C4.64691 7.93803 4.24369 7.18365 4.08033 6.36238C3.91697 5.54112 4.00081 4.68986 4.32125 3.91624C4.64169 3.14263 5.18434 2.48141 5.88057 2.0162C6.57681 1.55099 7.39536 1.30269 8.23271 1.30269C9.35451 1.30612 10.4294 1.75328 11.2226 2.54652C12.0159 3.33975 12.463 4.41462 12.4664 5.53642Z" fill="#1E385E"/>
<path d="M1.7851 16.9995C2.63187 16.1526 3.63716 15.4809 4.74357 15.0225C5.84998 14.5642 7.03583 14.3283 8.2334 14.3283C9.43098 14.3283 10.6168 14.5642 11.7232 15.0225C12.8296 15.4809 13.8349 16.1526 14.6817 16.9995L15.6099 16.0713C13.6502 14.1212 10.9981 13.0264 8.2334 13.0264C5.46875 13.0264 2.81658 14.1212 0.856934 16.0713L1.7851 16.9995Z" fill="#1E385E"/>
</svg>
