<svg width="17" height="17" viewBox="0 0 17 17" fill="none" xmlns="http://www.w3.org/2000/svg">
<path d="M10.1665 14.9797C9.83435 15.2775 9.49164 15.5716 9.22369 15.7919C9.08996 15.9019 8.97333 15.9947 8.88526 16.0606C8.84161 16.0933 8.80237 16.1214 8.77034 16.1421C8.75467 16.1522 8.73718 16.1629 8.71974 16.1717C8.71109 16.1761 8.69913 16.1818 8.68519 16.1867C8.67464 16.1905 8.64661 16.2 8.61056 16.2C8.57451 16.2 8.54648 16.1905 8.53593 16.1867C8.52199 16.1818 8.51003 16.1761 8.50138 16.1717C8.48394 16.1629 8.46645 16.1522 8.45078 16.1421C8.41875 16.1214 8.37951 16.0933 8.33586 16.0606C8.24779 15.9947 8.13115 15.9019 7.99743 15.7919C7.72948 15.5716 7.38676 15.2775 7.05458 14.9797C4.98487 13.1274 2.88657 10.9356 1.99619 9.69332L1.99614 9.69325C0.860174 8.10685 0.296846 6.5257 0.428707 5.16664L0.428723 5.16648C0.54138 4.01492 1.00069 2.99591 1.77412 2.19889L1.77415 2.19886C2.51855 1.43203 3.4517 0.95913 4.50248 0.822648C4.64155 0.803923 4.9122 0.802225 5.16519 0.809391C5.41845 0.816566 5.68769 0.833578 5.8228 0.859671L5.82291 0.859693C6.50985 0.992754 7.07867 1.22918 7.64031 1.62233L7.64059 1.62253C7.98585 1.86512 8.3474 2.20427 8.61136 2.53149C8.87395 2.20399 9.23552 1.86494 9.58052 1.62253L9.58085 1.6223C10.3258 1.10111 11.1005 0.840202 12.0019 0.803516L12.0025 0.803495C13.3186 0.75364 14.5162 1.23805 15.4471 2.19901L15.4472 2.19908C16.4935 3.28012 16.9916 4.85397 16.7497 6.32245L16.7497 6.32267C16.5572 7.48295 15.9557 8.73959 15.0215 9.9688L15.0213 9.96904C14.0942 11.1853 12.0585 13.2874 10.1665 14.9797ZM10.1665 14.9797L10.033 14.8308M10.1665 14.9797C10.1665 14.9798 10.1664 14.9798 10.1664 14.9798L10.033 14.8308M10.033 14.8308C11.9208 13.1422 13.9461 11.0496 14.8623 9.84779L2.15875 9.57681C3.03635 10.8012 5.12186 12.9816 7.18807 14.8308C7.84869 15.4229 8.55028 16 8.61056 16C8.67083 16 9.37243 15.4229 10.033 14.8308ZM8.31662 3.48821L8.31638 3.48782C7.99011 2.94742 7.45664 2.41261 6.94736 2.11444C6.59175 1.90672 6.21573 1.75866 5.7968 1.66524C5.66513 1.63588 5.4086 1.6141 5.13641 1.60725C4.86433 1.60039 4.60581 1.60918 4.47054 1.6321L4.47016 1.63216C3.94192 1.7206 3.40685 1.929 2.98542 2.20873L2.98532 2.2088C2.65308 2.42904 2.20761 2.85401 1.9686 3.18328L1.9684 3.18356C1.37833 3.99357 1.09343 5.10122 1.22379 6.06749L1.22381 6.06761C1.34381 6.96105 1.77858 7.98806 2.48044 9.01211L2.48056 9.01229C2.92973 9.66916 3.65416 10.5232 4.54518 11.4505C5.83178 12.7894 7.37155 14.2465 8.35722 15.0632L8.22962 15.2172L8.35677 15.0628C8.36645 15.0708 8.37577 15.0785 8.38476 15.0859C8.47137 15.1573 8.52701 15.2031 8.57194 15.2336C8.5916 15.2469 8.60411 15.2536 8.61108 15.2569C8.6184 15.2535 8.63196 15.2462 8.6537 15.2313C8.69968 15.1996 8.75659 15.1525 8.84408 15.08C8.8535 15.0722 8.86328 15.0641 8.87344 15.0557C9.87861 14.2188 11.3966 12.7793 12.6759 11.4505C13.567 10.5232 14.2914 9.66916 14.7406 9.01229L14.7407 9.01211C15.4425 7.98806 15.8773 6.96105 15.9973 6.06761L15.9973 6.06748C16.0932 5.35696 15.9529 4.49324 15.6369 3.83782C15.0775 2.68067 14.1011 1.91116 12.8657 1.65068C12.7384 1.62401 12.4677 1.60794 12.1788 1.60794C11.8898 1.60794 11.619 1.62403 11.4918 1.65072L11.4913 1.65083C11.0514 1.74189 10.6404 1.89983 10.2739 2.11434C9.76459 2.41249 9.23104 2.94736 8.90473 3.48782L8.9045 3.48821C8.87402 3.53843 8.84343 3.58568 8.81749 3.62192C8.80496 3.63942 8.79074 3.65827 8.77642 3.67444C8.76972 3.682 8.75858 3.69405 8.7443 3.70584C8.73725 3.71167 8.72491 3.72123 8.70827 3.73021C8.69466 3.73755 8.65928 3.75506 8.61056 3.75506C8.56184 3.75506 8.52646 3.73755 8.51285 3.73021C8.49621 3.72123 8.48387 3.71167 8.47682 3.70584C8.46254 3.69405 8.45139 3.682 8.4447 3.67444C8.43037 3.65827 8.41615 3.63942 8.40363 3.62192C8.37768 3.58568 8.3471 3.53843 8.31662 3.48821Z" fill="#1E385E" stroke="#1E385E" stroke-width="0.4"/>
</svg>
