<svg width="85" height="15" viewBox="0 0 85 15" fill="none" xmlns="http://www.w3.org/2000/svg">
<path d="M6.79925 1.91372C6.94892 1.45307 7.60063 1.45307 7.7503 1.91372L8.79581 5.13145C8.86274 5.33746 9.05472 5.47694 9.27133 5.47694H12.6547C13.139 5.47694 13.3404 6.09675 12.9485 6.38145L10.2114 8.37012C10.0361 8.49744 9.96281 8.72312 10.0297 8.92913L11.0753 12.1469C11.2249 12.6075 10.6977 12.9906 10.3058 12.7059L7.56867 10.7172C7.39342 10.5899 7.15613 10.5899 6.98088 10.7172L4.24372 12.7059C3.85186 12.9906 3.32462 12.6075 3.4743 12.1469L4.5198 8.92913C4.58674 8.72312 4.51341 8.49744 4.33817 8.37012L1.601 6.38145C1.20915 6.09675 1.41053 5.47694 1.89489 5.47694H5.27821C5.49483 5.47694 5.68681 5.33746 5.75374 5.13145L6.79925 1.91372Z" fill="#CCDB2D"/>
<path d="M24.4125 1.91372C24.5622 1.45307 25.2139 1.45307 25.3636 1.91372L26.4091 5.13145C26.476 5.33746 26.668 5.47694 26.8846 5.47694H30.2679C30.7523 5.47694 30.9537 6.09675 30.5618 6.38145L27.8247 8.37012C27.6494 8.49744 27.5761 8.72312 27.643 8.92913L28.6885 12.1469C28.8382 12.6075 28.311 12.9906 27.9191 12.7059L25.1819 10.7172C25.0067 10.5899 24.7694 10.5899 24.5942 10.7172L21.857 12.7059C21.4651 12.9906 20.9379 12.6075 21.0876 12.1469L22.1331 8.92913C22.2 8.72312 22.1267 8.49744 21.9514 8.37012L19.2143 6.38145C18.8224 6.09675 19.0238 5.47694 19.5082 5.47694H22.8915C23.1081 5.47694 23.3001 5.33746 23.367 5.13145L24.4125 1.91372Z" fill="#CCDB2D"/>
<path d="M42.0258 1.91372C42.1755 1.45307 42.8272 1.45307 42.9769 1.91372L44.0224 5.13145C44.0893 5.33746 44.2813 5.47694 44.4979 5.47694H47.8812C48.3656 5.47694 48.567 6.09675 48.1751 6.38145L45.4379 8.37012C45.2627 8.49744 45.1894 8.72312 45.2563 8.92913L46.3018 12.1469C46.4515 12.6075 45.9242 12.9906 45.5324 12.7059L42.7952 10.7172C42.62 10.5899 42.3827 10.5899 42.2074 10.7172L39.4703 12.7059C39.0784 12.9906 38.5512 12.6075 38.7009 12.1469L39.7464 8.92913C39.8133 8.72312 39.74 8.49744 39.5647 8.37012L36.8276 6.38145C36.4357 6.09675 36.6371 5.47694 37.1215 5.47694H40.5048C40.7214 5.47694 40.9134 5.33746 40.9803 5.13145L42.0258 1.91372Z" fill="#CCDB2D"/>
<path d="M59.6371 1.91372C59.7868 1.45307 60.4385 1.45307 60.5882 1.91372L61.6337 5.13145C61.7006 5.33746 61.8926 5.47694 62.1092 5.47694H65.4925C65.9769 5.47694 66.1783 6.09675 65.7864 6.38145L63.0493 8.37012C62.874 8.49744 62.8007 8.72312 62.8676 8.92913L63.9131 12.1469C64.0628 12.6075 63.5356 12.9906 63.1437 12.7059L60.4066 10.7172C60.2313 10.5899 59.994 10.5899 59.8188 10.7172L57.0816 12.7059C56.6898 12.9906 56.1625 12.6075 56.3122 12.1469L57.3577 8.92913C57.4246 8.72312 57.3513 8.49744 57.1761 8.37012L54.4389 6.38145C54.047 6.09675 54.2484 5.47694 54.7328 5.47694H58.1161C58.3327 5.47694 58.5247 5.33746 58.5916 5.13145L59.6371 1.91372Z" fill="#CCDB2D"/>
<path d="M77.2485 1.91372C77.3981 1.45307 78.0498 1.45307 78.1995 1.91372L79.245 5.13145C79.312 5.33746 79.5039 5.47694 79.7206 5.47694H83.1039C83.5882 5.47694 83.7896 6.09675 83.3978 6.38145L80.6606 8.37012C80.4854 8.49744 80.412 8.72312 80.479 8.92913L81.5245 12.1469C81.6741 12.6075 81.1469 12.9906 80.755 12.7059L78.0179 10.7172C77.8426 10.5899 77.6053 10.5899 77.4301 10.7172L74.6929 12.7059C74.3011 12.9906 73.7738 12.6075 73.9235 12.1469L74.969 8.92913C75.036 8.72312 74.9626 8.49744 74.7874 8.37012L72.0502 6.38145C71.6584 6.09675 71.8598 5.47694 72.3441 5.47694H75.7274C75.944 5.47694 76.136 5.33746 76.203 5.13145L77.2485 1.91372Z" fill="#CCDB2D"/>
</svg>
