<svg width="84" height="14" viewBox="0 0 84 14" fill="none" xmlns="http://www.w3.org/2000/svg">
<path d="M7.16173 11.3763C7.28884 11.2996 7.448 11.2996 7.57511 11.3763L11.1105 13.5102C11.4134 13.693 11.7871 13.4214 11.7067 13.0768L10.7685 9.05512C10.7348 8.91052 10.7839 8.75914 10.8962 8.66192L14.0203 5.95549C14.2877 5.72381 14.1448 5.2845 13.7922 5.25459L9.67929 4.90565C9.53146 4.89311 9.40272 4.79978 9.34482 4.66318L7.73671 0.868949C7.59887 0.543738 7.13797 0.543737 7.00013 0.868948L5.39202 4.66318C5.33413 4.79978 5.20538 4.89311 5.05755 4.90565L0.944653 5.25459C0.592082 5.2845 0.449118 5.72381 0.716558 5.95549L3.84068 8.66192C3.9529 8.75914 4.00204 8.91052 3.96831 9.05512L3.0301 13.0768C2.94972 13.4214 3.32341 13.693 3.62634 13.5102L7.16173 11.3763Z" fill="#CCDB2D"/>
<path d="M24.3512 11.3763C24.4783 11.2996 24.6375 11.2996 24.7646 11.3763L28.3 13.5102C28.6029 13.693 28.9766 13.4214 28.8962 13.0768L27.958 9.05512C27.9243 8.91052 27.9734 8.75914 28.0856 8.66192L31.2097 5.95549C31.4772 5.72381 31.3342 5.2845 30.9816 5.25459L26.8687 4.90565C26.7209 4.89311 26.5922 4.79978 26.5343 4.66318L24.9262 0.868949C24.7883 0.543738 24.3274 0.543737 24.1896 0.868948L22.5815 4.66318C22.5236 4.79978 22.3948 4.89311 22.247 4.90565L18.1341 5.25459C17.7815 5.2845 17.6386 5.72381 17.906 5.95549L21.0301 8.66192C21.1424 8.75914 21.1915 8.91052 21.1578 9.05512L20.2196 13.0768C20.1392 13.4214 20.5129 13.693 20.8158 13.5102L24.3512 11.3763Z" fill="#CCDB2D"/>
<path d="M41.5504 11.3763C41.6775 11.2996 41.8367 11.2996 41.9638 11.3763L45.4992 13.5102C45.8021 13.693 46.1758 13.4214 46.0954 13.0768L45.1572 9.05512C45.1235 8.91052 45.1726 8.75914 45.2848 8.66192L48.409 5.95549C48.6764 5.72381 48.5334 5.2845 48.1809 5.25459L44.068 4.90565C43.9201 4.89311 43.7914 4.79978 43.7335 4.66318L42.1254 0.868949C41.9875 0.543738 41.5266 0.543737 41.3888 0.868948L39.7807 4.66318C39.7228 4.79978 39.5941 4.89311 39.4462 4.90565L35.3333 5.25459C34.9808 5.2845 34.8378 5.72381 35.1052 5.95549L38.2293 8.66192C38.3416 8.75914 38.3907 8.91052 38.357 9.05512L37.4188 13.0768C37.3384 13.4214 37.7121 13.693 38.015 13.5102L41.5504 11.3763Z" fill="#CCDB2D"/>
<path d="M58.7399 11.3763C58.867 11.2996 59.0261 11.2996 59.1532 11.3763L62.6886 13.5102C62.9916 13.693 63.3652 13.4214 63.2849 13.0768L62.3467 9.05512C62.3129 8.91052 62.3621 8.75914 62.4743 8.66192L65.5984 5.95549C65.8658 5.72381 65.7229 5.2845 65.3703 5.25459L61.2574 4.90565C61.1096 4.89311 60.9808 4.79978 60.9229 4.66318L59.3148 0.868949C59.177 0.543738 58.7161 0.543737 58.5783 0.868948L56.9701 4.66318C56.9123 4.79978 56.7835 4.89311 56.6357 4.90565L52.5228 5.25459C52.1702 5.2845 52.0272 5.72381 52.2947 5.95549L55.4188 8.66192C55.531 8.75914 55.5802 8.91052 55.5464 9.05512L54.6082 13.0768C54.5278 13.4214 54.9015 13.693 55.2045 13.5102L58.7399 11.3763Z" fill="#CCDB2D"/>
<path d="M75.9313 11.3763C76.0584 11.2996 76.2175 11.2996 76.3446 11.3763L79.88 13.5102C80.183 13.693 80.5567 13.4214 80.4763 13.0768L79.5381 9.05512C79.5043 8.91052 79.5535 8.75914 79.6657 8.66192L82.7898 5.95549C83.0573 5.72381 82.9143 5.2845 82.5617 5.25459L78.4488 4.90565C78.301 4.89311 78.1722 4.79978 78.1144 4.66318L76.5062 0.868949C76.3684 0.543738 75.9075 0.543737 75.7697 0.868948L74.1616 4.66318C74.1037 4.79978 73.9749 4.89311 73.8271 4.90565L69.7142 5.25459C69.3616 5.2845 69.2186 5.72381 69.4861 5.95549L72.6102 8.66192C72.7224 8.75914 72.7716 8.91052 72.7378 9.05512L71.7996 13.0768C71.7192 13.4214 72.0929 13.693 72.3959 13.5102L75.9313 11.3763Z" fill="#CCDB2D"/>
</svg>
