<svg width="105" height="26" viewBox="0 0 105 26" fill="none" xmlns="http://www.w3.org/2000/svg">
<path d="M30.6242 0.113053C24.5044 0.155472 19.4985 6.7396 19.4985 12.4825C19.4985 18.526 23.1681 25.8981 30.6242 25.8742C38.0803 25.8503 41.9502 17.9136 41.9502 12.4826C41.9502 6.48355 36.7439 0.0706995 30.6242 0.113053ZM30.6242 0.338357C35.7462 0.338357 37.1281 5.81437 37.1281 12.4825C37.1281 21.2811 35.4611 25.6219 30.6242 25.6136C25.7872 25.6054 24.2136 22.0527 24.2136 12.4825C24.2136 6.48768 25.5021 0.338357 30.6242 0.338357ZM43.971 12.6449C43.9436 6.11038 49.3463 0.322016 53.9197 0.0347495C55.5717 -0.0785032 57.6952 0.653771 58.935 1.17548C59.8352 1.55432 61.6728 1.00593 61.9991 0H62.1771V8.90127H61.9991C61.9991 8.52183 60.2962 0.258587 53.9197 0.258587C49.2098 0.258587 48.7549 8.27545 48.7549 12.6449C48.7549 17.0142 48.892 25.6643 54.3883 25.6643C57.0508 25.6643 59.0216 24.5366 59.5325 22.2554V15.319H57.2977V15.0235H65.9604V15.319H63.8238V25.46H63.6498C63.6498 25.46 63.3025 23.9968 61.5398 24.0017C59.287 24.0079 57.1624 25.9026 54.5726 25.8795C47.7235 25.8185 43.9985 19.1795 43.971 12.6449ZM2.69726 0.98986H0V0.69639H9.44879V0.98986H7.07832L13.8297 18.7382C15.9408 12.4464 17.5764 7.79549 19.7773 0.98986H17.4326V0.69639H22.4216V0.98986H20.1497L11.9441 25.7523L2.69726 0.98986ZM67.2833 19.6898L67.2405 0.96138H64.6731V0.68085H74.132V0.96138H71.5661L71.6231 21.4961C72.1911 23.8475 73.201 25.6317 76.6514 25.6583C80.1017 25.6848 82.4473 23.6824 83.319 20.9459V0.961314H80.3819V0.68912H104.421L104.471 9.6795H104.24C103.794 3.87474 101.48 1.68091 97.4338 1.04095C96.0413 0.820715 94.5806 0.983991 92.7339 0.970051V12.4442C94.342 12.5644 96.0549 12.4661 97.2093 11.5063C98.259 10.6335 98.5557 8.61707 98.6329 7.79789H98.8361V17.7883H98.6161C98.5526 17.7883 98.4681 15.2812 97.2093 14.0918C95.9422 12.8946 94.3285 12.6003 92.7339 12.8855V25.1424C94.9863 25.1424 96.7818 25.3271 98.341 24.9133C103.081 23.6554 104.749 19.7846 104.736 15.9024H105V25.4326H86.1444V25.1424H88.2764V0.96138H83.67V20.9459C83.148 22.8581 81.2398 26.0215 76.3495 25.9999C71.8027 25.9798 67.2931 23.9955 67.2833 19.6898Z" fill="white"/>
</svg>
