<svg width="91" height="16" viewBox="0 0 91 16" fill="none" xmlns="http://www.w3.org/2000/svg">
<path d="M7.79331 12.3408C7.92042 12.264 8.07958 12.264 8.20669 12.3408L12.1324 14.7102C12.4353 14.893 12.809 14.6214 12.7286 14.2768L11.6869 9.81112C11.6531 9.66652 11.7023 9.51514 11.8145 9.41792L15.2834 6.41275C15.5509 6.18107 15.4079 5.74177 15.0553 5.71186L10.4883 5.32439C10.3405 5.31185 10.2118 5.21851 10.1539 5.08191L8.36829 0.868947C8.23045 0.543736 7.76955 0.543737 7.63171 0.868948L5.84613 5.08191C5.78823 5.21851 5.65949 5.31185 5.51165 5.32439L0.944653 5.71186C0.592083 5.74177 0.449119 6.18107 0.716558 6.41275L4.18552 9.41792C4.29774 9.51514 4.34688 9.66652 4.31315 9.81112L3.27137 14.2768C3.19098 14.6214 3.56467 14.893 3.8676 14.7102L7.79331 12.3408Z" fill="#F9F8F6"/>
<path d="M26.4593 12.3408C26.5864 12.264 26.7456 12.264 26.8727 12.3408L30.7984 14.7102C31.1013 14.893 31.475 14.6214 31.3947 14.2768L30.3529 9.81112C30.3191 9.66652 30.3683 9.51514 30.4805 9.41792L33.9495 6.41275C34.2169 6.18107 34.0739 5.74177 33.7214 5.71186L29.1544 5.32439C29.0065 5.31185 28.8778 5.21851 28.8199 5.08191L27.0343 0.868947C26.8965 0.543736 26.4356 0.543737 26.2977 0.868948L24.5121 5.08191C24.4542 5.21851 24.3255 5.31185 24.1777 5.32439L19.6107 5.71186C19.2581 5.74177 19.1151 6.18107 19.3826 6.41275L22.8515 9.41792C22.9638 9.51514 23.0129 9.66652 22.9792 9.81112L21.9374 14.2768C21.857 14.6214 22.2307 14.893 22.5336 14.7102L26.4593 12.3408Z" fill="#F9F8F6"/>
<path d="M45.1273 12.3408C45.2544 12.264 45.4136 12.264 45.5407 12.3408L49.4664 14.7102C49.7693 14.893 50.143 14.6214 50.0626 14.2768L49.0208 9.81112C48.9871 9.66652 49.0362 9.51514 49.1485 9.41792L52.6174 6.41275C52.8849 6.18107 52.7419 5.74177 52.3893 5.71186L47.8223 5.32439C47.6745 5.31185 47.5458 5.21851 47.4879 5.08191L45.7023 0.868947C45.5644 0.543736 45.1035 0.543737 44.9657 0.868948L43.1801 5.08191C43.1222 5.21851 42.9935 5.31185 42.8456 5.32439L38.2786 5.71186C37.9261 5.74177 37.7831 6.18107 38.0505 6.41275L41.5195 9.41792C41.6317 9.51514 41.6809 9.66652 41.6471 9.81112L40.6053 14.2768C40.525 14.6214 40.8987 14.893 41.2016 14.7102L45.1273 12.3408Z" fill="#F9F8F6"/>
<path d="M63.7933 12.3408C63.9204 12.264 64.0796 12.264 64.2067 12.3408L68.1324 14.7102C68.4353 14.893 68.809 14.6214 68.7286 14.2768L67.6869 9.81112C67.6531 9.66652 67.7023 9.51514 67.8145 9.41792L71.2834 6.41275C71.5509 6.18107 71.4079 5.74177 71.0553 5.71186L66.4883 5.32439C66.3405 5.31185 66.2118 5.21851 66.1539 5.08191L64.3683 0.868947C64.2305 0.543736 63.7695 0.543737 63.6317 0.868948L61.8461 5.08191C61.7882 5.21851 61.6595 5.31185 61.5117 5.32439L56.9447 5.71186C56.5921 5.74177 56.4491 6.18107 56.7166 6.41275L60.1855 9.41792C60.2977 9.51514 60.3469 9.66652 60.3131 9.81112L59.2714 14.2768C59.191 14.6214 59.5647 14.893 59.8676 14.7102L63.7933 12.3408Z" fill="#F9F8F6"/>
<path d="M82.4593 12.3408C82.5864 12.264 82.7456 12.264 82.8727 12.3408L86.7984 14.7102C87.1013 14.893 87.475 14.6214 87.3947 14.2768L86.3529 9.81112C86.3191 9.66652 86.3683 9.51514 86.4805 9.41792L89.9495 6.41275C90.2169 6.18107 90.0739 5.74177 89.7214 5.71186L85.1544 5.32439C85.0065 5.31185 84.8778 5.21851 84.8199 5.08191L83.0343 0.868947C82.8965 0.543736 82.4356 0.543737 82.2977 0.868948L80.5121 5.08191C80.4542 5.21851 80.3255 5.31185 80.1777 5.32439L75.6107 5.71186C75.2581 5.74177 75.1151 6.18107 75.3826 6.41275L78.8515 9.41792C78.9638 9.51514 79.0129 9.66652 78.9792 9.81112L77.9374 14.2768C77.857 14.6214 78.2307 14.893 78.5336 14.7102L82.4593 12.3408Z" fill="#F9F8F6"/>
</svg>
