<svg width="90" height="38" viewBox="0 0 90 38" fill="none" xmlns="http://www.w3.org/2000/svg">
<path fill-rule="evenodd" clip-rule="evenodd" d="M6.7488 4.30462C7.56663 3.73889 8.35238 3.14037 9.19427 2.62384C11.2549 1.35301 13.4839 0.492124 15.8652 0.188764C23.0012 -0.721315 28.8784 1.65637 33.4086 7.38741C35.405 9.90448 36.6478 12.8233 37.0648 16.0373C38.043 23.4409 35.6616 29.5327 29.9448 34.1979C27.4993 36.1984 24.6609 37.3626 21.574 37.8792C21.3175 37.9202 21.0448 37.9448 20.7883 37.994C20.6119 38.0268 20.5397 37.9202 20.4595 37.8136C18.5192 35.1489 16.5708 32.4843 14.6305 29.8278C13.8287 28.7292 13.0269 27.6305 12.2251 26.5319C12.177 26.4581 12.1288 26.3843 12.0487 26.2777H12.3534C13.7806 26.2613 15.2078 26.3105 16.6189 26.2039C18.8078 26.0481 20.8203 25.3676 22.4239 23.736C23.6266 22.5144 24.2119 21.014 24.2841 19.2922C24.3482 17.9722 24.1478 16.7096 23.5064 15.5453C22.6805 14.0367 21.3896 13.1103 19.8341 12.5363C18.423 12.0116 16.9477 11.8312 15.4563 11.8312C12.193 11.823 8.92167 11.8312 5.65034 11.823C5.41782 11.823 5.29754 11.8968 5.19331 12.1182C4.24719 14.0531 3.71799 16.0947 3.60574 18.2592C3.277 24.4084 6.61248 30.0738 11.8001 32.7877C11.9605 32.8696 12.1048 32.9926 12.209 33.1402C13.2754 34.5914 14.3338 36.059 15.3922 37.5184C15.4643 37.6086 15.5285 37.7152 15.5686 37.871C15.0955 37.7644 14.6144 37.6742 14.1414 37.5594C7.21384 35.8213 1.73755 30 0.374495 22.8178C-0.603698 17.6361 0.334413 12.8151 3.18881 8.39588C3.28503 8.2483 3.38124 8.18271 3.55763 8.18271C7.89536 8.18271 12.2331 8.14991 16.5628 8.2073C18.904 8.2401 21.1571 8.78123 23.2177 9.96187C25.7594 11.4213 27.4432 13.5694 27.9884 16.521C28.5978 19.7924 28.0926 22.8424 25.8797 25.425C24.5808 26.95 22.905 27.9093 21.0529 28.5324C20.4275 28.7456 19.77 28.885 19.1286 29.0571C19.0323 29.0817 18.9361 29.1063 18.7998 29.1473C19.0804 29.5409 19.345 29.9016 19.6096 30.2624C20.4675 31.4348 21.3335 32.5991 22.1914 33.7797C22.3117 33.9437 22.4159 33.9847 22.6003 33.9273C28.4053 32.1071 32.1016 28.1963 33.3925 22.1373C35.0843 14.1761 30.2495 6.27236 22.5362 4.15704C19.7459 3.39454 16.9637 3.46013 14.1975 4.32102C13.973 4.38661 13.7324 4.4276 13.4999 4.4276C11.3511 4.4358 9.2103 4.4276 7.06148 4.4276H6.76482C6.76482 4.4276 6.73275 4.35381 6.71672 4.31282" fill="#1E385E"/>
<path fill-rule="evenodd" clip-rule="evenodd" d="M47.9452 28.18C49.18 29.8607 50.3907 31.5087 51.6335 33.2141C51.2486 33.2141 50.9119 33.1731 50.5912 33.2223C49.9497 33.3207 49.5568 33.0583 49.188 32.509C48.306 31.2054 47.3439 29.9591 46.4218 28.6801C46.3015 28.5161 46.1813 28.4341 45.9728 28.4423C45.1068 28.4505 44.2409 28.4423 43.3669 28.4423C43.0943 28.4423 42.958 28.5762 42.958 28.8441V33.1813H41.4186C41.4186 33.0911 41.3945 32.9927 41.3945 32.8943C41.3945 28.9425 41.3945 24.9988 41.3945 21.0469C41.3945 20.7927 41.4747 20.7354 41.7072 20.7354C43.4391 20.7436 45.179 20.7354 46.9109 20.7435C47.9372 20.7517 48.8994 21.0059 49.7412 21.6372C50.7836 22.4325 51.1765 23.523 51.0963 24.8184C50.984 26.5894 49.7813 27.6388 48.3541 28.0488C48.2339 28.0816 48.1136 28.1144 47.9532 28.1636M42.9741 24.5888C42.9741 25.3021 42.9741 26.0073 42.9741 26.7206C42.9741 26.9009 43.0142 26.9665 43.2066 26.9665C44.4414 26.9583 45.6681 26.9665 46.9029 26.9501C47.4321 26.9501 47.9292 26.7943 48.3942 26.5402C49.164 26.1056 49.5649 25.4333 49.5649 24.5314C49.5649 23.6624 49.204 22.9983 48.4343 22.5965C47.9372 22.3341 47.4 22.2276 46.8467 22.2194C45.6521 22.2112 44.4574 22.2194 43.2627 22.2112C43.0222 22.2112 42.9741 22.3013 42.9741 22.5227C42.9821 23.2114 42.9741 23.9083 42.9741 24.597" fill="#505050"/>
<path fill-rule="evenodd" clip-rule="evenodd" d="M54.1666 18.2917V5.87037C54.2548 5.87037 54.343 5.85397 54.4232 5.85397C56.1872 5.85397 57.9511 5.83757 59.7071 5.85397C60.6933 5.86217 61.6233 6.11633 62.4332 6.71485C63.2911 7.33797 63.7401 8.19886 63.8203 9.26472C63.9967 11.544 62.6016 12.7493 61.022 13.1756C60.9178 13.2002 60.8215 13.2412 60.6772 13.2904C61.904 14.963 63.1147 16.6109 64.3655 18.3081C63.716 18.3081 63.1147 18.3163 62.5214 18.3081C62.4412 18.3081 62.345 18.1769 62.2888 18.0949C61.2465 16.6765 60.2122 15.2581 59.1779 13.8315C59.0335 13.6265 58.8812 13.5446 58.6326 13.5528C57.7667 13.5691 56.9008 13.5691 56.0268 13.5528C55.7702 13.5528 55.682 13.6101 55.69 13.8889C55.7061 15.2499 55.69 16.6191 55.69 17.9802V18.2999H54.1426L54.1666 18.2917ZM55.7301 12.0687C55.8183 12.0769 55.8985 12.1015 55.9787 12.1015C57.0932 12.1015 58.2077 12.1015 59.3142 12.1015C60.0438 12.1015 60.7253 11.9458 61.3427 11.5358C62.6336 10.6913 62.6256 8.42843 61.1503 7.72332C60.6452 7.48555 60.116 7.35437 59.5627 7.35437C58.3681 7.33797 57.1734 7.35437 55.9787 7.34617C55.7783 7.34617 55.7141 7.40356 55.7141 7.61673C55.7141 9.03515 55.7141 10.4536 55.7141 11.872C55.7141 11.9376 55.7301 12.0032 55.7301 12.0851" fill="#505050"/>
<path fill-rule="evenodd" clip-rule="evenodd" d="M83.7366 33.4108C80.2086 33.4026 77.5467 30.615 77.5547 26.95C77.5627 23.3097 80.2968 20.5221 83.8408 20.5303C87.3286 20.5385 90.0066 23.3343 89.9986 26.9664C89.9986 30.615 87.2725 33.419 83.7366 33.4108ZM83.7927 31.9186C84.9473 31.9186 85.9656 31.5496 86.8155 30.7543C88.7157 28.967 88.9162 25.753 87.2805 23.7115C85.5566 21.5716 82.3013 21.424 80.4973 23.4163C79.3186 24.7199 78.9659 26.2859 79.2705 28.0159C79.6634 30.287 81.5637 31.9186 83.7927 31.9186Z" fill="#505050"/>
<path fill-rule="evenodd" clip-rule="evenodd" d="M61.8968 27.6635H61.528C59.5636 27.6635 57.6071 27.6635 55.6427 27.6635C55.3942 27.6635 55.3381 27.7372 55.3381 27.975C55.3541 29.1311 55.3381 30.2871 55.3381 31.4432V31.7219C55.4583 31.7219 55.5545 31.7383 55.6508 31.7383C57.8958 31.7383 60.1408 31.7383 62.3859 31.7383C62.6585 31.7383 62.7627 31.7957 62.7387 32.0991C62.7146 32.4598 62.7387 32.8206 62.7387 33.1977H53.8066V20.7764H62.6665C62.6665 21.2027 62.6665 21.6373 62.6665 22.0554C62.6665 22.1046 62.5783 22.162 62.5222 22.1866C62.458 22.2112 62.3778 22.1866 62.3057 22.1866C60.1087 22.1866 57.9038 22.1866 55.7069 22.1866C55.4664 22.1866 55.3461 22.3096 55.3461 22.5555C55.3461 23.646 55.3461 24.7364 55.3461 25.8269C55.3461 26.0619 55.4664 26.1795 55.7069 26.1795C57.6633 26.1795 59.6116 26.1795 61.568 26.1795C61.8326 26.1795 61.9208 26.2532 61.9048 26.5238C61.8887 26.8928 61.9048 27.2617 61.9048 27.6553" fill="#505050"/>
<path fill-rule="evenodd" clip-rule="evenodd" d="M79.5354 5.8457H88.0184C88.2589 5.8457 88.3792 5.97415 88.3792 6.23105C88.3792 6.49342 88.3792 6.75578 88.3792 7.01815C88.3872 7.22312 88.315 7.29691 88.1146 7.29691C87.3288 7.28871 86.5431 7.29691 85.7573 7.29691C84.306 7.29691 82.8548 7.29691 81.4035 7.29691C81.139 7.29691 81.0588 7.3707 81.0668 7.64127C81.0828 8.75632 81.0668 9.87957 81.0668 11.0028C81.0668 11.093 81.0748 11.1832 81.0828 11.3144H81.4196C83.384 11.3144 85.3404 11.3144 87.3048 11.3144C87.5293 11.3144 87.6175 11.3636 87.6095 11.6095C87.5934 11.9867 87.6095 12.372 87.6095 12.7902H87.2567C85.3003 12.7902 83.3519 12.7902 81.3955 12.7902C81.155 12.7902 81.0668 12.8476 81.0668 13.1099C81.0828 14.266 81.0828 15.422 81.0668 16.5781C81.0668 16.8404 81.155 16.8896 81.3795 16.8896C83.6085 16.8814 85.8375 16.8896 88.0585 16.8896C88.3311 16.8896 88.4674 17.0263 88.4674 17.2996V18.3245H79.5273V5.8457H79.5354Z" fill="#505050"/>
<path fill-rule="evenodd" clip-rule="evenodd" d="M74.975 5.86227H76.5225C76.5225 5.96066 76.5385 6.05085 76.5385 6.14104C76.5385 8.50232 76.5545 10.8636 76.5385 13.2249C76.5385 14.1842 76.3541 15.1188 75.9211 15.9797C75.3358 17.1358 74.4298 17.8983 73.211 18.2508C72.0725 18.5788 70.9179 18.5952 69.7793 18.2754C67.9432 17.7589 66.8929 16.4635 66.508 14.5941C66.3958 14.0366 66.3717 13.4463 66.3637 12.8723C66.3477 10.6422 66.3637 8.41214 66.3477 6.18203C66.3477 5.91967 66.4198 5.82128 66.6844 5.83768C67.0051 5.86227 67.3258 5.85407 67.6466 5.83768C67.855 5.82948 67.9112 5.90327 67.9112 6.10824C67.9112 6.69036 67.9112 7.26429 67.9112 7.84641C67.9112 9.49439 67.8951 11.1506 67.9192 12.7986C67.9272 13.3889 67.9913 13.9956 68.1276 14.5695C68.4724 15.9961 69.627 16.9144 71.0622 16.9882C71.8079 17.021 72.5375 16.98 73.2191 16.6274C74.3015 16.0699 74.7906 15.1107 74.9269 13.93C74.975 13.5365 74.983 13.1265 74.983 12.733C74.983 10.5685 74.983 8.40394 74.983 6.23942V5.86227H74.975Z" fill="#505050"/>
<path fill-rule="evenodd" clip-rule="evenodd" d="M70.1067 31.098C70.3954 30.3929 70.6519 29.7534 70.9085 29.122C72.007 26.4164 73.1055 23.7108 74.1959 21.0133C74.2761 20.8165 74.3643 20.7345 74.5727 20.7427C75.0298 20.7591 75.4868 20.7427 75.9839 20.7427C75.8636 21.0543 75.7514 21.3249 75.6311 21.5954C74.0436 25.3915 72.464 29.1876 70.8845 32.9919C70.7883 33.2215 70.668 33.3035 70.4355 33.2871C70.1789 33.2707 69.9223 33.2707 69.6657 33.2871C69.4733 33.2953 69.3771 33.2215 69.2969 33.0411C68.1984 30.3847 67.092 27.7364 65.9855 25.0882C65.4082 23.719 64.8389 22.3415 64.2696 20.9723C64.2456 20.9149 64.2295 20.8493 64.1895 20.7509C64.7507 20.7509 65.2879 20.7427 65.8171 20.7591C65.8812 20.7591 65.9614 20.9067 66.0015 20.9969C66.5868 22.4563 67.1802 23.9075 67.7655 25.3669C68.4951 27.1707 69.2167 28.9663 69.9464 30.77C69.9785 30.852 70.0265 30.934 70.0987 31.098" fill="#505050"/>
<path fill-rule="evenodd" clip-rule="evenodd" d="M42.2344 5.8623H51.7998V7.33811H51.4711C50.3486 7.33811 49.2261 7.33811 48.1035 7.33811C47.847 7.33811 47.7828 7.4201 47.7828 7.67426C47.7828 11.0932 47.7828 14.504 47.7828 17.9229V18.3001H46.2273V17.9475C46.2273 14.5286 46.2273 11.1178 46.2273 7.69886C46.2273 7.46383 46.1071 7.34631 45.8665 7.34631H42.2424V5.8705L42.2344 5.8623Z" fill="#505050"/>
</svg>
